<?xml version="1.0" encoding="UTF-8"?>
<!-- Composite icon: vertical circuit-breaker symbol + power meter -->
<svg width="80" height="64" viewBox="0 0 80 64" xmlns="http://www.w3.org/2000/svg" fill="none" stroke-linecap="round" stroke-linejoin="round">
  <!-- CB vertical conductor top -->
  <path d="M16 4 L16 18" stroke="#000" stroke-width="4"/>
  <!-- Top Y
       \ /
        |  -->
  <path d="M16 4 L10 10" stroke="#000" stroke-width="4"/>
  <path d="M16 4 L22 10" stroke="#000" stroke-width="4"/>

  <!-- Breaker red zig-zag / arrow -->
  <polyline points="16,18 12,24 20,30 12,36 20,42 16,48" stroke="#d32f2f" stroke-width="4" fill="none"/>

  <!-- CB vertical conductor bottom -->
  <path d="M16 48 L16 60" stroke="#000" stroke-width="4"/>
  <!-- Bottom Y -->
  <path d="M16 60 L10 54" stroke="#000" stroke-width="4"/>
  <path d="M16 60 L22 54" stroke="#000" stroke-width="4"/>

  <!-- Power meter enclosure -->
  <rect x="34" y="14" width="38" height="36" rx="3" fill="#4f4f4f" stroke="#212121" stroke-width="2"/>
  <!-- Screen background -->
  <rect x="40" y="20" width="26" height="20" fill="#ffffff" stroke="#212121" stroke-width="1"/>
  <!-- Green header strip -->
  <rect x="40" y="20" width="26" height="4" fill="#66bb6a" stroke="none"/>
  <!-- Small indicator squares -->
  <rect x="42" y="44" width="4" height="4" fill="#000" />
  <rect x="50" y="44" width="4" height="4" fill="#000" />
  <rect x="58" y="44" width="4" height="4" fill="#000" />
</svg>
